<svg xmlns="http://www.w3.org/2000/svg" width="1280" height="720" viewBox="0 0 1280 720">
  <rect width="1280" height="720" fill="#1a0f15" />
  <rect x="0" y="0" width="1280" height="90" fill="#b91c1c"/>
  <text x="34" y="57" fill="#fff" font-size="36" font-family="Segoe UI">CRITICAL ALERT: INV-004 relay approaching end-of-life</text>
  <rect x="48" y="120" width="820" height="300" rx="16" fill="#311620" stroke="#ef4444"/>
  <polyline points="80,360 180,320 280,300 380,280 480,260 580,230 680,180 780,150" fill="none" stroke="#f97316" stroke-width="4"/>
  <polyline points="80,320 180,330 280,340 380,350 480,360 580,380 680,410 780,430" fill="none" stroke="#ef4444" stroke-width="4"/>
  <rect x="900" y="120" width="330" height="300" rx="16" fill="#311620" stroke="#ef4444"/>
  <circle cx="980" cy="220" r="64" fill="none" stroke="#49212b" stroke-width="18"/>
  <circle cx="980" cy="220" r="64" fill="none" stroke="#ef4444" stroke-width="18" stroke-dasharray="70 330"/>
  <text x="950" y="228" fill="#fff" font-size="26">14%</text>
  <text x="935" y="270" fill="#fecaca" font-size="18">RUL CRITICAL</text>
  <circle cx="1140" cy="220" r="16" fill="#ef4444"/>
  <text x="1107" y="256" fill="#fecaca" font-size="16">Virtual LED</text>
  <text x="72" y="468" fill="#fecaca" font-size="20">Virtual buzzer active + flashing banner</text>
</svg>
